# xmcd
#
# Track frame offsets:
#	150
#	18553
#	34663
#	59404
#	61942
#	77438
#	106312
#	124403
#	139942
#	142985
#	157978
#	173355
#	192368
#	213856
#	223485
#
# Disc length: 3038 seconds
#
# Revision: 0
# Processed by: cddbd v1.4PL0 Copyright (c) Steve Scherf et al.
# Submitted via: EasyCDDAExtractor 4.5.2.1
#
DISCID=d30bdc0f
DTITLE=Rod and the Shotgun Blues - Changer l'horizon
DYEAR=1998
DGENRE=Blues
TTITLE0=Une fille pareille
TTITLE1=L'appât du gain
TTITLE2=La vie est dure
TTITLE3=Slide Nº1
TTITLE4=Changer l'horizon
TTITLE5=J'pense à toi
TTITLE6=Side tracked
TTITLE7=Mr Geronimo
TTITLE8=Acoustic Boogie
TTITLE9=Babe please don't go
TTITLE10=Laissez l'bon temps rouler
TTITLE11=Ortencia
TTITLE12=Béatrice
TTITLE13=Le chaperon rouge
TTITLE14=Acoustic Blues
EXTD=
EXTT0=
EXTT1=
EXTT2=
EXTT3=
EXTT4=
EXTT5=
EXTT6=
EXTT7=
EXTT8=
EXTT9=
EXTT10=
EXTT11=
EXTT12=
EXTT13=
EXTT14=
PLAYORDER=
